<svg viewBox="0 0 512 512" xmlns="http://www.w3.org/2000/svg" xmlns:xlink="http://www.w3.org/1999/xlink"><linearGradient id="linear-gradient" gradientUnits="userSpaceOnUse" x1="74.98" x2="437.02" y1="74.98" y2="437.02"><stop offset="0" stop-color="#0bcff4"/><stop offset="1" stop-color="#4d5ef3"/></linearGradient><g id="Layer_2" data-name="Layer 2"><g id="pen_line"><circle id="background" cx="256" cy="256" fill="url(#linear-gradient)" r="256"/><g fill="#fff"><path d="m345.15 237.53-.14-.14-70.56-70.61s-86 86-127.44 128.3c-5.16 5.26-9.07 12.58-11.39 19.65-6.8 20.8-12.43 42-18.69 63-1.68 5.64-1.34 10.6 3.07 14.79 4.16 4 8.84 4.15 14.24 2.53 20-6 40.13-11.71 60.22-17.46a61.5 61.5 0 0 0 27.16-16.39c39.48-39.72 123.53-123.67 123.53-123.67z"/><path d="m386.34 149.8-24.13-24.13a33 33 0 0 0 -46.65 0l-27.35 27.33 70.79 70.8 27.35-27.35a33 33 0 0 0 -.01-46.65z"/><rect height="29.61" rx="14.81" width="168.68" x="227.32" y="366.38"/></g></g></g></svg>