<svg clip-rule="evenodd" fill-rule="evenodd" height="512" image-rendering="optimizeQuality" shape-rendering="geometricPrecision" text-rendering="geometricPrecision" viewBox="0 0 2.66666 2.66666" width="512" xmlns="http://www.w3.org/2000/svg" xmlns:xlink="http://www.w3.org/1999/xlink"><linearGradient id="id0" gradientUnits="userSpaceOnUse" x1=".987" x2="1.68" y1="2.627" y2=".04"><stop offset="0" stop-color="#ff70c0"/><stop offset="1" stop-color="#59aeff"/></linearGradient><g id="Layer_x0020_1"><path d="m.045748.988323c.190543-.71111.92148-1.13312 1.63259-.942575.71111.190539 1.13312.921476.942575 1.63259-.190539.711114-.921476 1.13312-1.63259.942579-.711114-.190543-1.13312-.92148-.942579-1.63259z" fill="url(#id0)"/><g id="_2361943123408"><g><g><path id="_566282600" d="m1.96031 1.94087h-1.25396c-.00555512 0-.0125-.00277559-.0152756-.00694094-.00416929-.00416535-.00555512-.0111102-.00416929-.0166654.00555512-.0236063.0111102-.0486024.0152756-.0735984.0111102-.0541575.0222205-.109705.0374961-.148587.00694094-.0194409.0305472-.0541575.0416575-.0652677.044437-.0458268.11248-.0583228.179138-.0722087.0166654-.00277559.031937-.00555512.0486024-.00972047.00833071-.00138976.0152756-.00416929.0236063-.00555512.0416614-.00833071.0847087-.0180512.10276-.0402717.0111102-.0138858.0111102-.0347165.0111102-.0597126 0-.00416535 0-.00833071 0-.0124961 0-.0249961-.00138583-.0263858-.00694094-.0319409-.00416929-.00416535-.0111102-.0111102-.0208346-.0249961-.00972047-.0166614-.0152756-.0305472-.019437-.0430472-.00277953-.00833071-.00555512-.0166614-.0111102-.0249921-.00277559-.00555512-.00277559-.00555512-.00694488-.00694488-.0208307-.0111102-.0333268-.0277756-.0499882-.134701-.00277559-.0263819-.00555512-.0527677.0124961-.0777638l.00277559-.00277559.00555512-.00555512c-.0111102-.131921.0347165-.24024.130535-.306898.0277717-.019437.0486024-.0249921.0694331-.0305472.0111102-.00277559.0236063-.00694488.0361063-.0125.00277559-.00138583.00555512-.00138583.00833071-.00138583l.0749882-.00000787c.00277953 0 .00555512 0 .00833465.00138583.0124961.00555512.0249921.00972047.0361024.0125.0208307.00555118.0416614.0124961.0680433.0305472.0944291.0652677.141646.177748.130535.308283 0 0 .00138583.00138976.00138583.00138976.0166654.0180512.0249961.0333268.0194409.0833189-.0166575.106929-.0305433.123594-.051374.136091-.00416929.00277559-.00555512.00277559-.00694488.00694488-.00416535.00694094-.00555512.0152756-.00833071.0236063-.00416535.0124961-.00972047.0263819-.0194409.044437-.00972047.0138858-.0166614.0208307-.0208307.0249921-.00555512.00416929-.00555512.00555512-.00555512.0319409v.0124961c0 .0249961 0 .0458268.0111102.0597126.0222205.0277756.0805433.0388819.143031.0486024.101374.0180512.215244.0374921.25274.144421.0111063.0333268.0222165.0833189.0333268.134701.00694488.0291614.0124961.0597126.0194409.0874843.00138976.00555512 0 .0125-.00416535.0166654-.00555512.00278346-.0111102.00555906-.0180551.00555906zm-1.22896-.0388819h1.20397c-.00416535-.0208307-.00972047-.0430472-.0138819-.063878-.00972441-.0486024-.0208346-.0985984-.0319409-.12915-.0291614-.0833189-.127756-.10137-.222185-.118035-.0694331-.0124961-.134701-.0236063-.166638-.063878-.0208307-.0249961-.0194409-.056937-.0194409-.0847087v-.0111102c0-.0374921.00416929-.0458268.0180551-.0597126.00416535-.00416535.00833071-.00833071.0152756-.0180512.00833071-.0138858.0111102-.0249961.0152756-.0361063.00277559-.00833071.00555512-.0180512.0111102-.0277717.00694094-.0138858.0152756-.0194409.0208307-.0222205.00694094-.00416535.0180512-.0111102.031937-.106925.00416929-.0361063 0-.0402717-.00972047-.0513819-.00277559-.00277559-.00416535-.00555512-.00694488-.00833071-.00277559-.00416929-.00416535-.00972047-.00416535-.0152756.0138858-.120815-.0263819-.219409-.11248-.279122-.0208307-.0152756-.0374921-.0194409-.056937-.0249961-.0111102-.00277559-.0236063-.00694094-.0374921-.0124961h-.0666654c-.0138858.00555512-.0263819.00972441-.0374921.0125-.0194409.00555512-.0361063.0111102-.056937.0263819-.0860984.0597126-.12498.156917-.11248.279122 0 .00555512-.00138976.0124961-.00555512.0166654l-.0111102.0111102c-.00694094.0124961-.00694094.0263819-.00416535.0486024.0152756.0985945.0249921.10276.0291614.105535.00833071.00416929.0152756.00972441.0236063.0236102.00555512.0111102.00972047.0208307.0124961.0305472.00416929.0111102.00833465.0222205.0152795.0361063.00555512.00972047.00972047.0138858.0138858.0166654.0138858.0138858.0180512.0236063.0194409.0597126v.0124961c0 .0277756.00138583.0597126-.0194409.0847087-.0263858.0333268-.076378.044437-.12498.0541575-.00833071.00138583-.0152756.00277559-.0236063.00555512-.0166654.00416535-.0333307.00694094-.0499921.00972047-.0624921.0124961-.122205.0236063-.156917.0597126-.00694094.00694094-.0277756.0361063-.031937.0513819-.0125.0361063-.0249961.0902638-.0347165.143031-.00555512.0124961-.00972441.0291614-.0125.0458268z" fill="#fff"/></g><g><path id="_566282528" d="m1.72146 1.79784h-.21524c-.0277756 0-.0499921-.0222205-.0499921-.0499921v-.0166654c0-.0277717.0222205-.0499882.0499921-.0499882h.21524c.0277756 0 .0499921.0222165.0499921.0499882v.0166654c0 .0277756-.0222165.0499921-.0499921.0499921zm-.21524-.076378c-.00555512 0-.00972441.00555512-.00972441.00972047v.0166654c0 .00416535.00416929.00972047.00972441.00972047h.21524c.00555512 0 .00972047-.00555512.00972047-.00972047v-.0166654c0-.00555512-.00555512-.00972047-.00972047-.00972047z" fill="#fff"/></g></g><g><path id="_566282384" d="m1.9978 2.18666h-1.33033c-.10415 0-.187469-.0847047-.187469-.188858v-1.33033c0-.10415.0833189-.187469.187469-.187469h1.33172c.10415 0 .187469.0833189.187469.187469v1.33173c0 .10276-.0847047.187465-.188858.187465zm-1.33033-1.66639c-.0819331 0-.147197.0652638-.147197.147197v1.33173c0 .0819291.0652638.148587.147197.148587l1.33172-.00000394c.0819331 0 .148587-.0666535.148587-.148587v-1.33172c0-.0805433-.0666535-.147197-.148587-.147197h-1.33172z" fill="#fff"/></g></g></g></svg>